<svg width="128" height="128" viewBox="0 0 128 128" fill="none" xmlns="http://www.w3.org/2000/svg">
  <defs>
    <linearGradient id="g" x1="18" y1="20" x2="112" y2="112" gradientUnits="userSpaceOnUse">
      <stop stop-color="#0B4DBB"/>
      <stop offset="1" stop-color="#7A0C2E"/>
    </linearGradient>
    <radialGradient id="glow" cx="0" cy="0" r="1" gradientUnits="userSpaceOnUse" gradientTransform="translate(44 36) rotate(48) scale(60)">
      <stop stop-color="white" stop-opacity="0.70"/>
      <stop offset="1" stop-color="white" stop-opacity="0"/>
    </radialGradient>
  </defs>
  <rect x="14" y="14" width="100" height="100" rx="34" fill="url(#g)"/>
  <path d="M18 18h92v92H18V18Z" fill="url(#glow)" opacity="0.85"/>
  <path
    d="M42.5 85V43h16.5c3.9 0 7.1.8 9.6 2.5 2.5 1.6 3.8 4.1 3.8 7.5 0 2.1-.6 3.9-1.8 5.4-1.2 1.4-2.7 2.5-4.5 3.2 2.3.6 4.2 1.7 5.6 3.4 1.4 1.6 2.1 3.6 2.1 6 0 3.7-1.3 6.5-4 8.4-2.6 1.9-6.1 2.8-10.5 2.8H42.5Zm9.4-25.6h6.9c1.4 0 2.6-.3 3.5-1 .9-.7 1.3-1.6 1.3-2.8 0-1.4-.5-2.4-1.4-3-.9-.6-2.2-.9-3.9-.9h-6.4v7.7Zm0 7v11.0h7.9c1.6 0 2.9-.3 3.9-1 1-.7 1.5-1.8 1.5-3.2 0-1.6-.5-2.7-1.4-3.4-.9-.7-2.3-1.0-4.1-1.0h-7.8Z"
    fill="white"
    fill-opacity="0.92"
  />
  <path
    d="M90.5 87.5c-6.0 0-10.8-1.8-14.3-5.5-3.5-3.7-5.2-8.7-5.2-15.1 0-6.7 1.8-12.0 5.4-15.8 3.6-3.8 8.6-5.7 15.0-5.7 5.5 0 10.0 1.4 13.4 4.3l-4.9 6.7c-2.3-1.8-5.0-2.7-8.2-2.7-3.6 0-6.3 1.1-8.1 3.4-1.8 2.3-2.7 5.4-2.7 9.3 0 3.8.9 6.8 2.6 9.0 1.8 2.2 4.4 3.3 7.9 3.3 3.4 0 6.3-1.0 8.7-3.0l4.9 6.5c-3.7 3.1-8.4 4.7-14.5 4.7Z"
    fill="white"
    fill-opacity="0.92"
  />
</svg>

